HIERARCHY
ROOT Hips
{
	OFFSET 0.00000 0.00000 0.00000
	CHANNELS 6 Xposition Yposition Zposition Zrotation Yrotation Xrotation 
	JOINT LHipJoint
	{
		OFFSET 0 0 0
		CHANNELS 3 Zrotation Yrotation Xrotation
		JOINT LeftHip
		{
			OFFSET 1.66553 -1.82942 0.76350
			CHANNELS 3 Zrotation Yrotation Xrotation
			JOINT LeftKnee
			{
				OFFSET 2.41740 -6.64177 0.00000
				CHANNELS 3 Zrotation Yrotation Xrotation
				JOINT LeftAnkle
				{
					OFFSET 2.71614 -7.46254 0.00000
					CHANNELS 3 Zrotation Yrotation Xrotation
					JOINT LeftToe
					{
						OFFSET 0.08005 -0.21993 1.82495
						CHANNELS 3 Zrotation Yrotation Xrotation
						End Site
						{
							OFFSET 0.00000 -0.00000 0.93441
						}
					}
				}
			}
		}
	}
	JOINT RHipJoint
	{
		OFFSET 0 0 0
		CHANNELS 3 Zrotation Yrotation Xrotation
		JOINT RightHip
		{
			OFFSET -1.63725 -1.82942 0.76350
			CHANNELS 3 Zrotation Yrotation Xrotation
			JOINT RightKnee
			{
				OFFSET -2.40538 -6.60872 0.00000
				CHANNELS 3 Zrotation Yrotation Xrotation
				JOINT RightAnkle
				{
					OFFSET -2.73312 -7.50919 0.00000
					CHANNELS 3 Zrotation Yrotation Xrotation
					JOINT RightToe
					{
						OFFSET -0.15567 -0.42769 1.93504
						CHANNELS 3 Zrotation Yrotation Xrotation
						End Site
						{
							OFFSET -0.00000 -0.00000 1.00100
						}
					}
				}
			}
		}
	}
	JOINT lowerback
	{
		OFFSET 0 0 0
		CHANNELS 3 Zrotation Yrotation Xrotation
		JOINT Chest
		{
			OFFSET 0.00326 2.30118 -0.13017
			CHANNELS 3 Zrotation Yrotation Xrotation
			JOINT Chest2
			{
				OFFSET 0.02887 2.30677 0.00834
				CHANNELS 3 Zrotation Yrotation Xrotation
				JOINT lowerneck
				{
					OFFSET 0 0 0
					CHANNELS 3 Zrotation Yrotation Xrotation
					JOINT Neck
					{
						OFFSET 0.12946 1.68326 0.00713
						CHANNELS 3 Zrotation Yrotation Xrotation
						JOINT Head
						{
							OFFSET -0.24364 1.67243 -0.16079
							CHANNELS 3 Zrotation Yrotation Xrotation
							End Site
							{
								OFFSET -0.09229 1.70819 -0.06383
							}
						}
					}
				}
				JOINT LeftCollar
				{
					OFFSET 0 0 0
					CHANNELS 3 Zrotation Yrotation Xrotation
					JOINT LeftShoulder
					{
						OFFSET 3.28104 0.69567 -0.00556
CHANNELS 3 Zrotation Xrotation Yrotation
						JOINT LeftElbow
						{
OFFSET 0 -5.707060 -0.000000
CHANNELS 3 Zrotation Xrotation Yrotation
							JOINT LeftWrist
							{
OFFSET 0 -3.332430 0.000000
CHANNELS 3 Zrotation Xrotation Yrotation
								JOINT lhand
								{
									OFFSET 0 0 0
CHANNELS 3 Zrotation Xrotation Yrotation
									JOINT LFingers
									{
OFFSET 0 -0.792690 0.000000
CHANNELS 3 Zrotation Xrotation Yrotation
										End Site
										{
OFFSET 0 -0.639090 0.000000
										}
									}
								}
								JOINT LThumb
								{
OFFSET 0 0.000000 0.000000
CHANNELS 3 Zrotation Xrotation Yrotation
									End Site
									{
OFFSET 0 -0.648840 0.648840
									}
								}
							}
						}
					}
				}
				JOINT RightCollar
				{
					OFFSET 0 0 0
					CHANNELS 3 Zrotation Yrotation Xrotation
					JOINT RightShoulder
					{
						OFFSET -3.40955 0.64424 0.14010
CHANNELS 3 Zrotation Xrotation Yrotation
						JOINT RightElbow
						{
OFFSET 0 -5.881760 -0.000000
CHANNELS 3 Zrotation Xrotation Yrotation
							JOINT RightWrist
							{
OFFSET 0 -3.281560 0.000000
CHANNELS 3 Zrotation Xrotation Yrotation
								JOINT rhand
								{
									OFFSET 0 0 0
CHANNELS 3 Zrotation Xrotation Yrotation
									JOINT RFingers
									{
OFFSET 0 -0.863130 0.000000
CHANNELS 3 Zrotation Xrotation Yrotation
										End Site
										{
OFFSET 0 -0.695870 0.000000
										}
									}
								}
								JOINT RThumb
								{
OFFSET 0 0.000000 0.000000
CHANNELS 3 Zrotation Xrotation Yrotation
									End Site
									{
OFFSET 0 -0.706500 0.706500
									}
								}
							}
						}
					}
				}
			}
		}
	}
}
MOTION
Frames: 10
Frame Time: 0.008333333333333333
10.906300 18.169100 -0.614400 -177.686000 9.706500 -178.548000 0.000000 0.000000 0.000000 -20.822800 1.244300 -13.904300 1.419100 7.533700 21.306500 0.708400 7.443200 -20.304800 0.000100 0.060300 0.165800 0.000000 0.000000 0.000000 26.980600 -9.580800 -3.112000 -1.421200 -7.539100 21.322600 -0.634600 -0.506400 -15.242300 -0.173200 -2.680800 7.391200 4.108700 -1.724300 0.485300 3.191800 -1.474800 -6.373600 1.113300 -0.656900 -6.959600 19.725300 12.311400 14.047500 -12.496500 19.648000 1.360400 -6.858300 10.348500 1.348200 -0.000000 -0.000000 0.000000 16.791500 22.268000 -76.404700 29.217800 -40.213400 10.901000 49.825900 -26.461400 -38.076500 0.000000 0.000000 0.000000 -7.125000 0.000000 0.000000 37.621300 78.336000 -29.900800 -0.000000 -0.000000 0.000000 -4.068700 -1.957900 19.792200 -8.953600 -15.086400 -1.188000 -24.925700 25.845000 -5.304400 0.000000 0.000000 0.000000 7.125000 0.000000 -0.000000 1.312000 24.134300 0.661100
10.971633 17.962679 -1.104124 -178.284726 10.360698 -179.451813 0.000000 0.000000 0.000000 -21.274501 4.002268 -12.522233 1.586438 7.945466 22.548520 0.660947 6.631734 -19.180522 0.273673 -3.363571 -9.292863 0.000000 0.000000 0.000000 25.175831 -9.842258 -5.116528 -2.704810 -10.200975 29.630043 -0.907409 1.330393 -17.603200 -0.040971 -1.305828 3.590600 2.190096 -1.837955 1.623920 3.287977 -1.774465 -5.887409 2.330581 -0.733147 -7.018745 20.110852 12.547060 13.996052 -12.034247 19.970616 1.458549 -6.732858 10.490068 1.428427 0.000000 0.000000 0.000000 15.112679 18.107765 -75.773569 29.148518 -40.152339 10.856382 50.951861 -23.942027 -39.491247 0.000000 0.000000 0.000000 -7.125000 0.000000 0.000000 44.274909 79.967530 -36.796218 0.000000 0.000000 0.000000 -4.506249 -1.125542 13.560381 -8.200748 -13.877663 -0.999723 -22.076137 34.185473 -4.571860 0.000000 0.000000 0.000000 7.125000 0.000000 0.000000 3.438083 25.047491 1.662005
11.042511 17.920135 -1.606405 -179.042083 9.733877 -180.761766 0.000000 0.000000 0.000000 -21.990357 5.057302 -8.877966 1.451999 7.616794 21.555989 0.944834 4.465009 -20.496131 0.214613 -2.971636 -8.200524 0.000000 0.000000 0.000000 23.884827 -10.464620 -7.957428 -4.078060 -12.263512 36.670758 -1.515687 0.191540 -23.234495 -0.551481 -4.752830 13.205534 1.593813 -2.695518 2.805906 3.035104 -3.023541 -5.565920 2.546769 -1.356328 -7.308989 19.724146 12.891026 15.439438 -12.413127 20.728061 1.400184 -6.869069 10.940521 1.315309 0.000000 0.000000 0.000000 13.620262 12.739185 -74.117632 29.814535 -40.733907 11.288375 50.385633 -23.390677 -39.219787 0.000000 0.000000 0.000000 -7.125000 0.000000 0.000000 41.468286 79.603177 -34.085508 0.000000 0.000000 0.000000 -3.753676 -0.926994 -0.306817 -5.802528 -9.932413 -0.504670 -23.375002 45.244931 -7.943979 0.000000 0.000000 0.000000 7.125000 0.000000 0.000000 2.512390 21.339108 1.427251
11.206099 17.928852 -2.117378 -177.979608 8.846620 -178.520042 0.000000 0.000000 0.000000 -20.791854 0.472879 -7.542610 1.507952 7.755549 21.973931 1.496134 3.372684 -24.531891 0.204178 2.908400 8.024038 0.000000 0.000000 0.000000 25.876656 -7.255460 -12.732888 -3.070731 -10.808560 31.636900 -2.136653 -6.210031 -30.385662 -0.185530 -2.772985 7.647488 2.162210 -3.681279 0.794927 4.040590 -4.177637 -6.063955 3.263833 -1.873464 -6.619948 19.831176 13.626100 14.865537 -13.567331 21.834878 2.464523 -7.026608 11.558841 2.036577 0.000000 0.000000 0.000000 11.568424 8.300227 -70.592104 32.785211 -43.164203 13.274883 47.142293 -24.294612 -38.406466 0.000000 0.000000 0.000000 -7.125000 0.000000 0.000000 29.062726 78.013304 -22.709670 0.000000 0.000000 0.000000 -5.722029 1.214757 8.727369 -6.297029 -10.756651 -0.593479 -21.879545 40.384146 -8.351300 0.000000 0.000000 0.000000 7.125000 0.000000 0.000000 3.603891 20.998184 2.077152
11.460965 17.969317 -2.567334 -177.575511 8.712924 -177.474404 0.000000 0.000000 0.000000 -20.513661 -4.429701 -3.167957 1.175460 6.881392 19.364559 0.750749 12.984269 -25.733277 0.413501 -4.127716 -11.436329 0.000000 0.000000 0.000000 26.115217 -6.889421 -17.798453 -2.193083 -9.257195 26.603376 -1.848487 -8.849871 -30.152271 -0.004047 0.369112 -1.014178 1.617988 -4.273987 1.536607 4.760682 -4.860823 -6.425474 4.448457 -2.124318 -7.306369 19.732762 14.034880 15.233857 -15.315927 22.214770 0.195837 -7.621169 11.740540 1.560352 0.000000 0.000000 0.000000 11.891763 6.576204 -69.240309 39.629203 -47.848418 18.163952 46.058915 -19.057555 -37.986604 0.000000 0.000000 0.000000 -7.125000 0.000000 0.000000 25.578107 77.262875 -19.539367 0.000000 0.000000 0.000000 -6.113784 -0.369021 3.786605 -5.762228 -9.864912 -0.497807 -22.030375 45.533070 -9.999677 0.000000 0.000000 0.000000 7.125000 0.000000 0.000000 3.532129 19.221359 2.176469
11.805030 17.869672 -3.041283 -178.210548 9.776379 -177.784880 0.000000 0.000000 0.000000 -20.031508 -0.707410 -1.954671 1.138150 6.775238 19.051105 1.164186 11.058656 -27.128034 0.509203 -4.573393 -12.695759 0.000000 0.000000 0.000000 25.570182 -9.145766 -17.448515 -2.093510 -9.058237 25.977686 -1.241201 -6.420565 -24.266239 -0.017305 0.823406 -2.263195 0.895345 -3.958226 2.142773 4.315197 -4.600169 -5.973734 4.384412 -2.015336 -7.159209 19.763360 14.223440 15.106433 -16.147323 22.259988 -1.396586 -7.921081 11.739852 1.219013 0.000000 0.000000 0.000000 13.718833 6.902349 -69.175195 43.118305 -49.812586 20.791146 45.854100 -17.208074 -38.105303 0.000000 0.000000 0.000000 -7.125000 0.000000 0.000000 25.036919 77.329024 -19.149811 0.000000 0.000000 0.000000 -5.189477 -1.919411 15.103593 -6.473936 -11.050283 -0.626935 -22.305299 36.091824 -7.976161 0.000000 0.000000 0.000000 7.125000 0.000000 0.000000 3.289216 21.373647 1.867150
12.180152 17.843310 -3.594345 -176.767379 10.061829 -177.611245 0.000000 0.000000 0.000000 -16.278835 5.578414 -6.730809 2.127996 9.127292 26.194683 1.737607 4.336932 -26.772558 0.497661 -4.510370 -12.519093 0.000000 0.000000 0.000000 28.043454 -11.335273 -14.202499 -1.657698 -8.113327 23.058965 -1.118340 -3.313934 -21.425320 -0.373190 -3.923898 10.862510 3.282926 -3.137498 2.297041 4.202956 -3.240979 -6.392732 2.861789 -1.442825 -7.949160 19.701708 13.972247 15.091349 -15.653104 22.090762 -0.240332 -7.734932 11.677999 1.465736 0.000000 0.000000 0.000000 14.131039 11.190307 -70.163842 38.239339 -46.991429 17.140458 45.924301 -18.226713 -38.587306 0.000000 0.000000 0.000000 -7.125000 0.000000 0.000000 25.438586 77.860878 -19.737308 0.000000 0.000000 0.000000 -3.201783 -2.345121 17.668764 -6.761063 -11.525368 -0.683119 -20.682092 33.433211 -9.571618 0.000000 0.000000 0.000000 7.125000 0.000000 0.000000 4.483883 19.778167 2.710354
12.483674 17.935068 -4.147399 -178.795866 11.451726 -177.890442 0.000000 0.000000 0.000000 -18.309991 8.033073 -11.438701 2.474347 9.791195 28.302973 2.165076 5.067406 -29.966715 0.315653 -3.611456 -9.986032 0.000000 0.000000 0.000000 26.038909 -10.527311 -11.484584 -1.611019 -8.003861 22.725747 -1.154344 -3.011408 -21.585413 -0.380554 -3.961656 10.968745 1.747978 -2.166758 2.148761 3.070587 -2.223848 -6.274490 2.420701 -0.933923 -7.719108 20.263364 14.135886 15.478570 -15.071624 22.290221 -1.107906 -7.684468 11.721818 1.179360 0.000000 0.000000 0.000000 15.841538 16.899117 -72.315193 34.797292 -44.666634 14.670683 49.510312 -21.327955 -37.436645 0.000000 0.000000 0.000000 -7.125000 0.000000 0.000000 35.758424 77.604235 -27.856913 0.000000 0.000000 0.000000 -1.844294 -3.405672 24.016846 -8.212140 -13.896189 -1.002492 -19.943657 28.791734 -8.110479 0.000000 0.000000 0.000000 7.125000 0.000000 0.000000 5.002878 21.372791 2.846260
12.605039 18.149211 -4.678214 -178.709023 10.504770 -177.517618 0.000000 0.000000 0.000000 -19.196182 3.891152 -14.719165 2.018081 8.903516 25.494043 1.649008 6.976280 -27.635231 0.213989 -2.978115 -8.217874 0.000000 0.000000 0.000000 25.782856 -9.542720 -8.552048 -1.427383 -7.554594 21.369203 -0.693805 -4.990068 -18.330380 -0.309367 -3.574711 9.883159 3.482789 -1.972829 2.097694 2.659631 -1.893921 -6.165770 0.988267 -0.892548 -7.664956 19.812427 13.923289 15.283577 -15.790205 21.874369 -1.671707 -7.891629 11.530920 1.004275 0.000000 0.000000 0.000000 16.005333 20.879943 -72.234369 31.597909 -42.224273 12.469797 48.506407 -21.610802 -34.824592 0.000000 0.000000 0.000000 -7.125000 0.000000 0.000000 30.437217 74.575524 -21.712415 0.000000 0.000000 0.000000 -2.122076 -3.129971 27.621662 -10.018761 -16.768900 -1.480336 -20.580811 24.792769 -7.489384 0.000000 0.000000 0.000000 7.125000 0.000000 0.000000 4.538803 21.995181 2.516271
12.642098 18.312546 -5.217265 -178.641045 10.142381 -177.592928 0.000000 0.000000 0.000000 -20.500868 1.082039 -15.343034 1.383071 7.441339 21.029608 1.073655 9.817223 -25.418486 0.244290 -3.180431 -8.781426 0.000000 0.000000 0.000000 25.094349 -10.387010 -6.476967 -1.342180 -7.335158 20.712260 -0.345731 -6.000540 -14.923504 -0.033967 -1.189136 3.269442 4.093129 -1.391137 2.028161 2.926758 -1.077899 -5.810540 0.845240 -0.511358 -7.245701 19.921488 13.794689 14.844100 -16.365779 21.781543 -0.917543 -8.007231 11.522481 1.354193 0.000000 0.000000 0.000000 14.067668 20.510012 -71.106613 28.098467 -39.205489 10.186284 53.048348 -20.967596 -32.669389 0.000000 0.000000 0.000000 -7.125000 0.000000 0.000000 40.572279 73.462738 -28.537577 0.000000 0.000000 0.000000 -3.588734 -3.293301 21.757118 -9.339657 -15.700147 -1.290533 -21.557156 27.315728 -7.722722 0.000000 0.000000 0.000000 7.125000 0.000000 0.000000 3.829073 21.691221 2.147622
